<?xml version="1.0" standalone="no"?>
<!DOCTYPE svg PUBLIC "-//W3C//DTD SVG 20010904//EN"
 "http://www.w3.org/TR/2001/REC-SVG-20010904/DTD/svg10.dtd">
<svg version="1.0" xmlns="http://www.w3.org/2000/svg"
 width="828.000000pt" height="1324.000000pt" viewBox="0 0 828.000000 1324.000000"
 preserveAspectRatio="xMidYMid meet">

<g transform="translate(0.000000,1324.000000) scale(0.100000,-0.100000)"
fill="#000000" stroke="none">
<path d="M3565 12454 c-149 -62 -466 -217 -600 -294 -224 -128 -337 -216 -462
-359 -206 -235 -377 -568 -419 -815 -9 -50 -17 -92 -19 -94 -7 -8 -55 502 -57
611 -1 37 -5 70 -9 73 -12 7 -138 -161 -204 -271 -68 -115 -107 -210 -129
-315 -35 -173 -30 -335 14 -479 11 -36 18 -67 16 -69 -2 -2 -20 7 -40 20 -32
20 -40 35 -68 120 -18 54 -34 95 -36 93 -4 -3 28 -117 45 -162 9 -23 -147 98
-222 172 -33 33 -84 97 -114 142 -29 46 -57 81 -61 78 -18 -11 121 -515 188
-681 11 -29 18 -55 15 -58 -4 -3 -21 -6 -38 -6 -48 0 -252 -38 -325 -61 -105
-32 -259 -114 -336 -178 -83 -69 -175 -187 -270 -347 -37 -62 -73 -115 -81
-118 -8 -3 -12 -10 -8 -15 3 -5 42 8 88 29 198 91 323 112 543 91 251 -24 355
-58 503 -162 65 -46 71 -53 55 -63 -12 -7 -78 -11 -171 -11 -84 0 -149 -3
-145 -7 16 -16 298 -120 442 -163 85 -26 166 -52 179 -58 23 -11 96 -102 135
-167 l17 -30 -63 0 c-81 0 -181 15 -286 41 -46 12 -85 19 -88 17 -9 -10 134
-232 209 -324 115 -139 210 -202 377 -249 55 -15 55 -16 87 -85 l31 -70 -104
-96 c-103 -96 -126 -129 -81 -119 70 16 285 46 368 52 102 6 148 -1 250 -38
54 -20 58 -23 70 -67 8 -26 14 -60 14 -76 0 -23 5 -31 23 -36 15 -3 107 -98
234 -240 l209 -235 -4 -70 c-3 -38 -11 -88 -18 -110 -21 -61 -50 -59 -183 12
-122 65 -207 137 -319 272 -82 97 -72 103 -111 -69 -32 -141 -55 -192 -135
-298 -83 -109 -95 -115 -237 -111 l-114 4 -65 -86 c-80 -107 -86 -112 -143
-114 -26 -1 -76 -8 -112 -15 -66 -13 -67 -13 -231 34 -91 25 -169 46 -172 46
-19 0 14 -152 49 -225 10 -22 63 -87 119 -144 55 -57 88 -96 73 -86 -27 17
-28 17 -28 -2 0 -10 14 -41 30 -67 31 -49 32 -66 2 -66 -25 0 -143 -58 -171
-83 -27 -25 -76 -119 -102 -195 -10 -29 -29 -66 -42 -82 -14 -16 -40 -75 -58
-132 -31 -95 -34 -113 -33 -223 0 -98 5 -138 27 -218 15 -54 34 -108 42 -121
15 -22 13 -27 -21 -77 -104 -152 -155 -305 -233 -694 -49 -245 -54 -308 -48
-550 9 -329 22 -391 112 -540 l46 -74 -32 -63 c-17 -34 -74 -118 -127 -187
-198 -260 -269 -400 -307 -607 -10 -50 -19 -209 -27 -429 -6 -192 -12 -352
-14 -354 -1 -1 -18 9 -37 23 -19 14 -37 26 -40 26 -12 0 -7 -36 9 -70 9 -18
19 -64 22 -101 4 -59 2 -69 -12 -69 -9 0 -16 -1 -16 -3 0 -2 5 -30 11 -62 9
-48 8 -65 -5 -94 -28 -66 -46 -173 -36 -215 11 -48 9 -52 -30 -59 -37 -8 -40
-38 -9 -98 l20 -40 -154 -207 c-186 -250 -197 -267 -197 -315 0 -110 58 -342
91 -362 6 -4 3 8 -7 26 -18 35 -64 278 -64 341 0 32 21 65 167 260 l168 223
40 -3 c22 -2 41 -5 43 -7 2 -1 -10 -25 -26 -51 -33 -54 -53 -108 -72 -196 -17
-75 -11 -88 42 -88 59 0 307 37 340 51 34 14 59 54 88 142 22 68 23 69 54 63
17 -3 84 -8 148 -12 l118 -7 0 -33 c0 -18 -11 -98 -25 -178 -18 -111 -33 -165
-60 -223 -19 -42 -37 -74 -40 -71 -3 3 4 26 15 51 36 80 37 137 5 202 -15 31
-33 59 -41 62 -8 3 -15 19 -15 37 -1 20 -6 7 -15 -38 -15 -76 -32 -107 -69
-132 -37 -24 -147 -50 -288 -69 -115 -14 -129 -14 -164 0 l-38 16 29 -30 c28
-29 29 -31 16 -78 -7 -26 -14 -55 -16 -64 -3 -10 -24 -22 -50 -29 -24 -7 -47
-17 -50 -21 -7 -11 -9 -11 54 5 l54 15 28 -32 c16 -18 39 -56 52 -85 28 -67
56 -69 76 -6 l13 42 91 0 90 0 -7 -44 c-4 -26 -2 -44 3 -44 6 0 13 21 17 48 7
45 9 48 61 73 30 14 56 23 58 20 4 -7 9 -66 7 -94 -1 -10 -15 -24 -34 -32 -31
-14 -31 -14 -6 -15 24 0 59 26 59 44 0 5 14 21 30 36 24 23 30 36 30 70 0 26
8 53 21 71 48 68 80 161 105 307 13 80 26 147 28 149 1 2 9 -50 16 -114 11
-106 10 -140 -9 -329 -12 -117 -21 -217 -21 -223 0 -8 515 -11 1898 -11 l1897
0 116 208 c111 200 117 208 170 240 75 45 166 70 286 77 162 9 270 -18 317
-82 40 -54 28 -173 -31 -301 -14 -31 -31 -76 -39 -99 l-13 -43 317 0 317 0 94
205 c82 179 97 205 117 205 12 0 36 11 52 25 27 23 30 30 29 87 -1 76 23 135
87 216 27 34 49 75 55 101 12 56 26 69 86 80 62 12 76 28 160 193 l65 127 -27
21 -28 21 19 32 c51 85 118 233 150 330 81 244 85 410 17 811 -46 266 -46 273
4 458 39 144 48 236 36 367 l-9 114 29 55 c16 30 29 68 29 84 0 16 -16 98 -35
183 -46 209 -66 347 -69 490 -3 118 -4 122 -50 230 -44 104 -117 231 -193 336
l-33 47 26 58 c69 154 102 316 111 545 6 160 -3 251 -43 418 -54 221 -99 338
-189 494 -78 135 -85 152 -85 200 1 60 18 158 48 270 12 42 23 105 24 139 l3
63 -95 17 c-52 10 -144 20 -205 24 -141 7 -261 43 -276 81 -5 14 -15 23 -22
20 -6 -2 -53 -12 -103 -22 -135 -28 -139 -24 -169 172 l-7 42 -176 5 c-97 3
-192 5 -211 6 -23 1 -55 16 -100 48 -60 43 -71 47 -123 47 l-58 0 -50 210
c-28 116 -53 216 -55 224 -8 21 -25 2 -128 -148 -82 -117 -114 -153 -215 -244
l-120 -106 -58 24 c-33 14 -82 30 -111 36 l-52 12 -11 71 c-20 123 -48 226
-96 340 -25 61 -48 118 -50 127 -4 12 17 18 128 32 264 35 564 89 650 117 107
36 196 80 342 170 118 73 174 115 166 123 -3 3 -45 -5 -95 -18 -98 -24 -356
-39 -469 -27 l-59 7 154 101 c206 135 259 166 381 223 88 41 479 200 631 256
26 10 47 20 47 24 0 7 -174 63 -320 102 -148 41 -285 52 -541 47 l-220 -4 47
47 c53 54 145 94 323 141 58 15 86 25 62 22 -58 -8 -192 -45 -261 -72 l-55
-22 75 70 c283 266 724 560 1008 673 45 18 53 32 25 41 -34 10 -388 75 -498
90 -213 31 -502 56 -715 63 l-215 6 66 66 c59 60 76 87 178 291 84 169 108
226 97 228 -8 2 -69 -37 -135 -87 -250 -189 -357 -248 -593 -330 l-117 -40
-41 47 -41 47 6 85 7 85 -34 -40 c-18 -21 -40 -48 -48 -58 -15 -18 -18 -17
-90 22 -41 22 -94 43 -117 47 -24 4 -43 8 -43 10 0 2 16 28 35 59 35 54 147
297 159 345 l6 25 -12 -25 c-6 -14 -36 -80 -66 -148 -70 -157 -123 -246 -150
-250 -20 -3 -19 3 17 81 54 115 98 243 128 367 23 94 26 132 30 369 7 329 -15
811 -36 811 -4 0 -15 -17 -25 -37 -66 -139 -443 -638 -781 -1033 -106 -125
-107 -125 -80 21 32 169 50 207 291 611 140 233 168 288 147 288 -4 0 -32 -19
-62 -43 -31 -24 -110 -81 -176 -127 -203 -141 -305 -232 -440 -394 -34 -41
-54 -59 -50 -45 25 78 182 423 306 670 84 170 116 222 181 300 35 41 49 80 31
79 -5 -1 -57 -21 -118 -46z m50 -12 c-6 -5 -70 -54 -142 -111 -256 -197 -428
-371 -586 -594 -77 -108 -240 -367 -267 -424 -55 -116 -89 -317 -97 -573 -6
-198 4 -330 37 -466 10 -43 17 -81 15 -82 -6 -6 -74 217 -92 302 -23 107 -23
348 0 566 10 91 20 174 22 185 3 11 -2 5 -10 -13 -51 -111 -102 -391 -112
-617 -5 -119 7 -265 34 -397 5 -28 5 -28 -45 -28 -28 0 -53 4 -56 8 -12 21
-48 226 -60 350 -8 75 -14 117 -15 92 -2 -76 35 -360 55 -424 6 -17 1 -18 -64
-14 -39 2 -73 6 -75 8 -3 3 -17 58 -31 123 -50 222 -52 545 -6 728 83 326 343
724 597 915 152 114 441 273 748 410 134 61 170 74 150 56z m-26 -64 c-64 -84
-348 -670 -432 -893 -49 -128 -68 -231 -74 -385 -6 -169 5 -273 48 -433 61
-230 98 -423 114 -592 9 -93 20 -182 24 -197 8 -24 4 -30 -38 -59 -25 -19 -55
-44 -67 -56 l-21 -22 -28 29 c-18 19 -39 30 -56 30 -40 0 -53 24 -114 212 -96
294 -128 506 -129 850 l-1 227 -27 -112 c-74 -308 -81 -351 -74 -512 4 -82 9
-168 11 -190 5 -37 2 -33 -35 41 -27 53 -55 136 -81 240 -54 209 -61 330 -30
491 39 205 95 342 215 530 144 227 317 433 493 585 92 80 330 268 339 268 2 0
-15 -24 -37 -52z m760 -473 l9 -160 -93 -280 c-143 -431 -208 -569 -429 -920
-127 -202 -208 -319 -255 -369 -30 -33 -17 -26 86 43 68 45 141 103 163 129
42 47 203 356 280 535 23 54 61 175 85 270 40 163 150 525 162 537 3 3 3 -119
0 -270 -5 -301 -14 -364 -76 -550 -55 -163 -194 -435 -259 -506 -27 -30 -193
-142 -435 -295 -65 -41 -158 -104 -207 -140 l-88 -66 -6 35 c-3 20 -3 38 -1
41 3 2 5 -3 5 -12 0 -10 4 -17 9 -17 15 0 176 176 276 300 50 63 158 223 240
355 136 220 253 425 228 400 -6 -5 -57 -75 -114 -154 -57 -79 -129 -169 -161
-200 -55 -55 -178 -148 -178 -135 0 4 38 66 83 138 108 169 207 336 253 428
39 76 164 349 164 356 0 3 -35 -53 -77 -124 -163 -271 -343 -478 -588 -676
-140 -113 -164 -124 -205 -103 l-30 15 259 258 c141 141 285 291 318 332 51
65 162 224 188 270 19 34 -15 -9 -63 -81 -27 -41 -78 -111 -112 -155 -63 -80
-571 -594 -587 -594 -5 0 -18 36 -30 79 l-20 79 139 138 c281 280 680 772 989
1222 l64 94 3 -44 c1 -23 7 -115 11 -203z m-639 -153 c-236 -396 -259 -448
-290 -677 -10 -80 -11 -80 -70 -140 l-60 -60 0 56 c0 80 35 239 66 301 32 65
21 54 -40 -37 -25 -38 -46 -65 -46 -58 0 35 49 163 102 263 64 123 77 143 176
260 63 74 63 74 9 18 -31 -31 -100 -110 -154 -175 -85 -103 -111 -144 -201
-318 l-103 -200 5 130 c8 204 19 237 126 365 122 146 232 248 384 355 71 50
154 108 185 131 31 23 57 40 59 39 1 -1 -65 -115 -148 -253z m-1704 -509 c23
-263 39 -387 52 -407 3 -6 7 -80 9 -166 l2 -155 -26 50 c-14 27 -30 63 -35 80
-24 85 -98 461 -99 507 l-1 53 -13 -45 c-42 -140 -46 -170 -53 -344 -8 -219 5
-307 67 -431 22 -44 38 -81 36 -83 -2 -2 -50 20 -106 49 -114 60 -114 60 -147
194 -49 194 -33 410 43 598 43 108 226 389 242 373 3 -2 15 -125 29 -273z
m-713 -495 c30 -40 79 -94 109 -119 137 -117 342 -256 494 -332 100 -50 371
-163 489 -203 170 -58 219 -103 361 -326 35 -56 70 -105 76 -109 24 -15 -7
-29 -66 -29 -99 0 -325 75 -444 148 -49 29 -272 182 -383 261 -10 7 -19 11
-19 8 0 -6 174 -148 280 -227 136 -101 134 -104 -10 -12 -47 30 -131 91 -188
136 -57 44 -118 92 -135 106 -18 13 -63 51 -102 85 -81 70 -99 96 167 -245
227 -292 245 -309 363 -356 14 -5 -2 -10 -55 -15 -45 -5 -120 -24 -188 -48
l-112 -41 -34 38 c-134 148 -242 299 -355 495 -79 136 -122 230 -172 375 -39
114 -112 372 -107 378 2 1 53 -93 113 -209 111 -213 196 -364 217 -382 7 -5 3
4 -7 20 -60 94 -363 675 -352 675 2 0 29 -33 60 -72z m4035 -120 c-195 -217
-255 -268 -420 -354 -68 -35 -120 -64 -116 -64 16 0 186 84 246 123 57 37 190
164 312 297 17 19 -1 -14 -42 -75 -71 -107 -136 -181 -208 -239 -31 -24 -31
-26 -5 -10 84 48 180 157 274 312 18 28 35 52 37 52 3 0 -32 -72 -76 -160
-117 -228 -186 -299 -334 -339 -43 -12 -119 -37 -168 -56 -50 -19 -92 -35 -94
-35 -2 0 -13 33 -24 73 -12 39 -32 91 -45 115 -17 30 -20 44 -12 47 149 50
290 106 360 142 81 42 252 155 337 223 19 16 37 27 39 24 2 -2 -26 -36 -61
-76z m-966 -119 c48 -23 88 -44 88 -46 0 -8 -322 -382 -361 -420 -64 -60 -118
-93 -153 -93 -33 0 -251 -95 -400 -174 -79 -41 -91 -45 -104 -32 -14 13 -12
22 16 79 45 91 122 163 332 314 177 126 316 241 277 229 -10 -3 18 34 62 82
45 49 81 93 81 98 -1 5 -28 -20 -61 -56 l-60 -65 43 67 43 67 54 -4 c37 -3 83
-18 143 -46z m126 -76 c-76 -163 -175 -324 -224 -363 -10 -8 -5 3 11 25 21 28
4 16 -60 -44 -131 -122 -178 -154 -406 -274 -208 -109 -295 -171 -325 -229 -9
-17 -22 -67 -30 -112 -8 -45 -17 -93 -20 -108 -5 -24 -3 -28 16 -28 76 0 296
158 514 370 111 108 295 309 368 403 28 36 21 32 -47 -28 l-80 -70 56 65 c89
103 129 165 202 310 l69 135 -7 -60 c-28 -243 -154 -598 -281 -792 -52 -78
-200 -231 -301 -310 -46 -36 -83 -66 -83 -67 0 -2 80 26 178 61 289 104 590
186 671 182 l26 -2 -25 -4 c-140 -24 -443 -110 -575 -163 -108 -44 -248 -110
-243 -115 3 -3 52 17 109 44 171 80 509 189 662 212 98 15 106 17 87 29 -10 7
11 10 65 11 44 1 112 4 150 8 l70 6 -110 35 c-117 37 -203 43 -375 29 l-75 -7
57 12 c31 6 60 14 64 19 4 4 19 7 33 7 21 0 23 2 11 10 -8 5 -62 10 -120 11
-104 1 -104 1 -62 15 195 61 438 21 822 -136 58 -24 111 -48 118 -55 9 -8 -31
-14 -165 -23 -300 -19 -654 -96 -818 -177 -97 -47 -256 -156 -237 -163 6 -2
20 1 31 7 11 6 40 11 64 11 38 0 49 -5 71 -30 35 -42 46 -89 46 -195 0 -135
-29 -226 -99 -315 l-20 -25 11 45 c6 25 11 115 12 200 1 144 -1 159 -24 215
-21 51 -29 60 -50 60 l-25 0 0 -180 c0 -170 -1 -183 -24 -229 -13 -27 -50 -77
-83 -111 l-59 -63 58 18 c32 9 82 27 111 39 28 11 52 18 52 15 0 -4 -14 -31
-31 -61 -17 -30 -29 -57 -26 -60 6 -6 79 42 143 93 l42 34 6 -33 c3 -17 -1
-59 -9 -92 -18 -75 -18 -85 -2 -85 24 0 127 80 142 111 9 16 21 66 28 111 l12
81 58 44 c66 48 101 54 139 23 33 -26 49 -88 55 -220 l5 -105 -49 -75 c-63
-96 -123 -148 -212 -184 -88 -35 -106 -31 -98 25 5 36 4 38 -9 22 -19 -26 -17
-48 10 -91 64 -102 161 -325 191 -443 10 -35 30 -134 45 -219 16 -85 29 -143
29 -128 l1 27 45 -13 c25 -8 43 -11 40 -6 -2 4 -25 13 -50 19 -54 14 -60 26
-7 18 25 -5 32 -3 22 3 -8 5 -25 10 -36 10 -16 0 -23 7 -26 30 -3 18 0 30 7
30 34 0 135 -40 250 -98 98 -49 145 -80 193 -126 l62 -59 -21 -23 -21 -22 20
-70 19 -71 -21 -5 c-12 -3 -36 -6 -54 -6 -25 0 -32 -4 -30 -17 2 -11 -5 -19
-17 -21 -11 -2 -78 -26 -148 -54 l-128 -50 -84 21 c-109 27 -252 48 -410 60
-126 10 -129 10 -162 43 -76 73 -76 85 -12 413 22 109 38 205 37 213 -2 7 -67
-114 -145 -270 -79 -155 -160 -314 -180 -352 l-38 -69 -107 -42 -107 -43 36
56 c196 303 257 406 420 703 59 109 78 134 138 186 67 58 71 64 108 163 21 57
36 104 34 106 -2 2 -23 -41 -47 -97 -42 -99 -45 -103 -132 -175 -177 -147
-334 -238 -643 -369 -152 -65 -163 -66 -213 -20 -48 42 -451 495 -455 510 -1
5 18 13 43 17 107 18 110 18 125 48 22 43 18 53 -12 30 -36 -25 -137 -66 -185
-73 -49 -7 -49 7 -4 70 19 27 41 69 50 96 20 60 32 182 19 190 -6 4 -12 -25
-15 -76 -6 -87 -34 -171 -68 -202 -17 -15 -19 -14 -29 18 -13 39 -52 280 -46
285 2 2 24 -15 48 -38 l45 -41 16 23 c17 23 22 53 8 44 -4 -2 -30 6 -57 20
-28 13 -56 24 -62 24 -7 0 -13 7 -13 15 0 19 -1 19 66 -10 31 -14 58 -25 60
-25 2 0 4 16 4 36 0 21 4 33 10 29 6 -3 10 -15 10 -25 0 -10 10 -26 22 -34 23
-17 93 -22 102 -8 2 4 -10 6 -29 4 -32 -4 -75 11 -75 27 0 4 15 6 33 3 22 -3
29 -1 22 6 -5 6 -21 12 -34 14 -14 1 -26 9 -29 16 -5 17 48 15 72 -3 13 -10
39 -13 91 -10 70 4 73 3 84 -22 9 -20 16 -24 34 -19 132 39 392 76 527 76 l75
0 70 104 c63 95 71 103 92 95 20 -7 23 -5 23 16 0 13 -5 47 -11 75 -11 50 -11
50 -42 45 -203 -34 -301 -44 -315 -33 -9 7 -50 55 -93 106 -72 87 -149 218
-149 254 0 23 92 101 163 139 32 17 96 39 143 48 l85 17 -108 27 c-59 15 -137
30 -171 33 -45 5 -65 11 -70 23 -3 9 -24 37 -46 62 -23 25 -66 85 -96 134 -66
106 -72 96 -35 -61 49 -210 107 -400 149 -489 54 -113 110 -188 260 -343 69
-71 109 -119 95 -113 -114 44 -219 98 -301 155 -120 83 -213 169 -203 187 5 7
4 10 -3 5 -12 -7 -38 27 -71 91 -34 68 -24 63 20 -9 47 -80 62 -91 20 -15 -47
82 -89 191 -116 300 -13 56 -23 102 -21 104 2 3 12 -16 21 -42 10 -25 21 -48
26 -50 4 -3 -2 18 -12 46 -47 123 -75 295 -64 392 6 45 14 67 37 93 26 29 32
32 49 21 29 -18 101 -111 212 -276 53 -80 97 -141 97 -137 0 5 7 3 15 -4 13
-11 15 -7 15 28 0 60 19 140 46 193 34 68 99 120 329 259 114 69 233 146 265
173 33 26 148 153 256 282 108 129 198 235 199 235 2 0 -15 -39 -37 -87z m151
-163 c26 -50 77 -199 69 -204 -2 -2 -34 -20 -73 -40 -116 -62 -97 -59 71 13
270 116 368 141 564 141 189 0 589 -34 820 -71 171 -26 402 -70 418 -79 9 -4
-40 -31 -130 -70 -145 -63 -192 -87 -153 -76 19 5 19 5 1 -7 -281 -181 -532
-368 -696 -521 -108 -100 -140 -124 -235 -172 -168 -86 -240 -127 -227 -132 6
-2 53 10 104 26 160 51 213 57 473 57 269 -1 343 -10 539 -70 205 -62 204 -56
10 -94 -93 -18 -223 -48 -289 -66 -119 -33 -290 -94 -282 -101 2 -2 39 10 82
27 122 47 587 161 600 147 3 -2 -57 -28 -133 -57 -252 -98 -486 -202 -591
-263 -113 -65 -396 -251 -405 -267 -9 -14 139 -23 332 -19 200 4 205 9 -61
-83 -188 -66 -299 -96 -497 -134 -205 -39 -454 -74 -463 -65 -5 4 27 22 70 40
43 18 96 45 117 61 22 16 46 29 54 29 7 0 97 20 200 45 103 24 212 48 242 53
l55 9 -70 7 c-210 22 -310 37 -318 45 -17 17 -8 133 11 155 49 55 259 164 427
221 72 24 125 44 118 44 -28 2 -259 -75 -390 -129 -79 -32 -143 -57 -143 -56
0 8 140 115 173 132 l40 21 -79 -4 c-56 -4 -109 1 -181 16 -131 27 -150 27
-204 -7 -64 -42 -71 -53 -80 -150 -12 -115 -23 -144 -69 -186 -77 -70 -83 -65
-37 31 32 68 42 101 45 152 2 36 10 84 17 106 8 22 19 59 25 83 10 40 21 50
208 188 205 152 241 181 182 147 -19 -11 -87 -49 -150 -83 -63 -34 -139 -76
-167 -92 -29 -16 -53 -27 -53 -25 0 3 70 55 155 116 85 62 155 115 155 118 0
3 -6 1 -12 -5 -16 -13 -284 -162 -291 -162 -3 0 -8 17 -10 38 -2 23 -4 11 -5
-30 -3 -97 -40 -258 -76 -330 -23 -46 -49 -77 -101 -121 -101 -85 -114 -87
-54 -10 68 89 98 157 110 257 5 44 16 114 24 154 20 96 19 114 -6 146 -11 14
-17 26 -12 26 16 0 32 -16 48 -45 16 -30 16 -30 10 25 l-7 55 29 -27 28 -27
23 43 c62 116 198 190 422 230 107 19 297 36 417 36 50 0 94 4 97 9 10 16
-322 155 -481 201 l-82 23 52 29 c130 72 258 130 327 147 41 10 143 27 227 37
213 26 178 39 -108 39 l-226 0 61 17 c127 37 243 48 495 48 134 0 242 2 240 4
-4 4 -283 45 -594 88 -49 7 -184 12 -300 13 -241 0 -212 7 -510 -120 -93 -40
-171 -72 -172 -71 -1 1 18 55 42 121 38 108 73 241 90 348 l6 39 34 -39 c19
-21 47 -63 64 -93z m-3165 -227 l54 -108 -112 0 c-98 0 -123 -4 -215 -33 -57
-18 -101 -35 -99 -37 2 -2 34 1 70 7 59 10 78 8 165 -13 68 -16 89 -24 68 -26
-116 -11 -314 -50 -263 -52 43 -2 336 -106 439 -157 150 -73 291 -157 306
-182 11 -18 3 -21 -143 -58 -107 -27 -158 -36 -168 -29 -117 85 -229 151 -283
170 -104 36 -277 59 -453 59 -169 1 -228 -11 -367 -74 -35 -16 -63 -26 -63
-22 0 4 15 31 33 61 30 51 36 54 107 77 235 75 445 88 649 41 131 -31 160 -30
44 1 -222 60 -432 51 -683 -27 -35 -11 -65 -19 -67 -18 -3 4 61 100 111 166
136 180 387 302 706 345 58 8 106 14 107 15 2 1 27 -47 57 -106z m1134 -563
c64 -19 46 -21 -43 -5 -177 32 -321 8 -660 -110 -88 -30 -171 -55 -184 -55
-54 0 -4 -14 116 -32 259 -38 354 -49 618 -68 232 -17 279 -18 333 -6 35 7 64
10 66 7 2 -3 6 -18 10 -33 5 -23 2 -28 -27 -37 -18 -6 -73 -18 -123 -25 -69
-11 -79 -14 -44 -15 25 0 80 8 123 18 75 18 78 18 87 0 18 -33 10 -48 -35 -68
-48 -21 -54 -31 -82 -136 -9 -33 -17 -61 -18 -63 -1 -1 -21 5 -45 13 -58 20
-62 12 -5 -9 50 -19 49 -19 35 -47 -9 -15 -21 -19 -63 -18 -64 1 -99 10 -105
28 -3 10 4 12 29 7 19 -4 -13 11 -71 32 -116 42 -392 163 -387 169 2 2 37 -2
78 -7 41 -6 121 -13 179 -15 58 -2 119 -6 135 -10 24 -5 27 -4 15 5 -11 9 6
10 75 7 50 -2 97 -6 105 -9 8 -2 5 0 -7 6 -13 5 -23 12 -23 15 0 3 22 16 48
29 26 12 38 20 27 16 -121 -35 -146 -38 -315 -38 -96 1 -212 6 -257 13 -173
25 -495 114 -742 204 -145 53 -159 67 -48 48 34 -5 105 -12 157 -15 l95 -5
-100 13 c-55 7 -93 15 -85 18 8 4 69 18 135 32 168 37 394 98 495 136 l85 31
190 -5 c105 -2 209 -10 233 -16z m2720 -317 c-28 -27 -55 -42 -112 -58 -42
-12 -76 -21 -76 -19 0 5 205 114 215 114 5 0 -7 -16 -27 -37z m-3373 -92 c29
-8 59 -30 110 -81 38 -38 74 -70 79 -70 6 0 -19 29 -54 65 -35 36 -61 65 -56
65 6 0 183 -78 195 -86 2 -2 -7 -16 -20 -33 -23 -29 -26 -30 -114 -30 l-90 0
-50 75 c-27 41 -57 85 -65 96 -13 19 -13 20 5 15 11 -3 38 -10 60 -16z m1105
-111 c30 -23 70 -65 89 -94 43 -63 139 -158 209 -204 29 -19 50 -37 48 -39 -2
-3 -71 30 -154 71 -118 60 -159 86 -196 126 -43 46 -113 175 -131 240 -6 22
-3 21 36 -16 24 -23 69 -60 99 -84z m-769 -25 l29 -16 -20 -22 c-36 -38 -54
-121 -53 -247 0 -63 5 -126 11 -140 11 -25 11 -25 11 6 2 81 79 252 124 275
l22 12 -21 -24 c-33 -37 -61 -99 -86 -190 -19 -70 -23 -109 -23 -235 l0 -152
-33 72 c-44 95 -66 164 -92 287 -39 192 -31 258 46 348 40 46 43 47 85 26z
m-496 -165 c78 -73 198 -154 283 -190 58 -25 68 -33 76 -62 4 -18 14 -52 21
-75 13 -40 13 -43 -5 -43 -42 0 -194 64 -250 106 -91 67 -290 322 -326 418 -9
23 107 -66 201 -154z m179 115 c102 -4 186 -10 186 -14 0 -43 -181 -40 -405 5
l-30 6 20 -22 c11 -12 62 -47 112 -77 51 -31 93 -57 93 -59 0 -6 -55 17 -100
43 -41 23 -220 152 -220 157 0 2 36 -5 79 -14 47 -11 155 -20 265 -25z m585
-169 l20 -80 -59 -63 c-41 -44 -75 -96 -114 -174 -60 -119 -71 -115 -36 16 10
39 16 72 15 73 -7 8 -36 -106 -46 -178 -6 -41 -13 -91 -16 -110 l-6 -35 -10
30 c-5 17 -10 91 -11 165 -1 116 2 144 22 203 37 112 78 161 177 214 22 11 41
20 42 20 1 -1 10 -38 22 -81z m818 -101 c46 -22 73 -39 67 -45 -19 -19 -385
-200 -405 -200 -13 0 -29 16 -47 45 -28 45 -52 63 -31 23 23 -46 60 -88 77
-88 9 0 113 50 230 109 l213 109 49 -21 c27 -12 50 -24 50 -27 0 -3 -48 -20
-107 -38 -58 -18 -163 -58 -232 -89 -69 -31 -144 -58 -167 -61 -35 -4 -45 0
-67 24 -15 15 -37 48 -49 71 -13 24 -27 43 -31 43 -9 0 21 -58 58 -113 l19
-29 -25 4 c-13 2 -23 9 -21 16 3 16 -26 72 -49 95 -20 19 -34 23 -24 7 3 -5
-3 -10 -15 -10 -11 0 -23 7 -27 16 -6 15 -7 15 -19 -1 -13 -17 -15 -16 -36 11
-12 16 -61 69 -110 118 -48 50 -84 94 -80 98 13 13 103 25 145 20 24 -3 41
-11 48 -24 10 -18 11 -19 23 -2 10 14 27 17 82 15 89 -2 101 -6 109 -38 4 -19
0 -35 -16 -56 -12 -16 -17 -27 -10 -23 14 9 14 1 1 -27 -6 -12 31 21 81 74
l92 96 74 -33 c40 -19 108 -50 150 -69z m543 43 c0 -7 3 -30 6 -50 l7 -38 -49
-1 c-27 0 -81 -6 -121 -13 l-72 -13 -37 38 c-21 21 -36 41 -33 43 4 4 244 42
282 45 9 0 17 -5 17 -11z m508 -149 l-23 -51 -2 68 c-2 56 2 72 20 94 l22 26
3 -43 c2 -29 -4 -60 -20 -94z m-1646 -69 c25 -36 12 -26 -65 49 -52 52 -98
103 -101 114 -7 27 126 -103 166 -163z m1098 112 c0 -10 -117 -179 -129 -186
-5 -3 -96 -7 -202 -8 -186 -1 -269 8 -269 32 0 14 50 21 71 9 12 -6 36 -8 56
-4 26 5 37 13 44 35 7 18 21 32 40 39 26 9 29 8 29 -10 0 -31 -18 -58 -53 -79
-18 -11 -25 -20 -16 -20 23 0 70 54 78 91 5 26 14 35 46 46 38 13 43 12 121
-22 46 -19 86 -35 90 -35 5 0 -11 20 -35 44 l-43 44 53 11 c30 5 65 12 79 14
14 2 28 5 33 6 4 0 7 -3 7 -7z m-1305 -27 l53 -16 26 -72 c38 -109 49 -148 42
-154 -8 -8 -296 59 -296 69 0 10 46 103 67 135 14 20 16 21 50 7 19 -8 40 -13
46 -11 7 2 -7 10 -30 17 -42 13 -50 20 -36 33 9 10 19 9 78 -8z m195 -131 c0
-25 21 -46 41 -42 9 2 15 -8 17 -25 3 -26 2 -27 -17 -18 -24 13 -34 14 -26 2
3 -5 -12 -2 -34 7 -37 16 -40 21 -74 121 l-36 105 64 -64 c40 -40 65 -73 65
-86z m526 -29 c16 -8 45 -15 64 -16 50 -1 19 -11 -109 -39 -85 -18 -105 -19
-112 -8 -14 21 -12 24 49 51 67 31 71 32 108 12z m2414 1 c0 -11 -227 -140
-310 -175 -122 -52 -309 -89 -755 -151 -44 -6 -89 -13 -101 -15 -15 -3 -24 2
-32 20 -10 23 -9 25 21 29 370 61 478 80 576 102 113 25 407 119 526 168 61
25 75 29 75 22z m-3294 -55 c-7 -11 -46 -21 -46 -12 0 13 13 21 32 21 11 0 17
-4 14 -9z m113 -32 c-124 -68 -161 -90 -144 -84 11 4 62 16 113 28 81 19 98
20 140 8 74 -19 70 -29 -14 -36 -119 -9 -121 -14 -7 -12 l102 3 6 -41 c4 -22
9 -55 12 -72 3 -18 1 -33 -3 -33 -5 0 -44 11 -87 25 -99 32 -179 32 -392 1
-88 -13 -161 -23 -162 -22 -1 1 37 39 86 83 87 80 88 81 99 58 8 -18 8 -25 -1
-29 -7 -2 -4 -5 6 -5 9 -1 17 -5 17 -11 0 -5 4 -10 9 -10 9 0 24 35 38 90 7
29 17 39 63 61 46 22 59 25 93 16 26 -7 35 -13 26 -18z m1216 -1201 c3 -3 -15
-40 -40 -82 -26 -42 -44 -80 -41 -85 4 -5 1 -13 -5 -17 -8 -5 -10 -2 -5 7 4 8
0 5 -9 -6 -26 -32 -41 -65 -15 -35 26 30 11 -3 -15 -35 -9 -11 -13 -13 -9 -5
10 20 -5 4 -41 -44 l-28 -39 -35 69 c-19 38 -55 112 -79 164 l-44 95 75 -74
75 -75 42 88 41 88 64 -4 c35 -2 66 -7 69 -10z m-21 -86 c-9 -16 -25 -39 -36
-53 l-20 -24 16 28 c28 48 48 77 53 77 2 0 -3 -13 -13 -28z m451 -82 c3 -6 -1
-7 -9 -4 -18 7 -21 14 -7 14 6 0 13 -4 16 -10z m1033 -132 c-29 -3 -73 -10
-98 -15 l-45 -9 45 -22 c25 -11 59 -33 75 -47 l30 -26 -70 2 -69 2 -33 -79
c-20 -48 -32 -92 -30 -111 2 -25 -1 -33 -13 -33 -43 0 -234 32 -275 46 -61 20
-236 54 -283 54 -63 0 -83 9 -76 34 6 21 6 21 -18 -1 -23 -22 -33 -23 -176
-23 -239 0 -536 -30 -696 -71 -43 -11 -80 -18 -83 -15 -8 8 73 45 144 65 37
11 57 20 43 20 -14 0 -62 -12 -107 -28 l-83 -29 0 28 c0 16 9 50 20 77 12 29
14 41 6 29 -8 -10 -23 -40 -32 -67 -10 -27 -23 -49 -28 -49 -6 0 -43 7 -81 15
-39 8 -77 14 -85 14 -13 -1 10 -8 132 -40 36 -9 36 -10 26 -43 l-11 -34 -101
34 c-55 19 -126 37 -156 41 -60 6 -90 -2 -373 -94 -76 -24 -142 -42 -145 -38
-3 3 2 29 12 58 11 30 20 81 20 120 1 61 4 71 27 91 23 20 245 102 364 135 94
26 277 -1 374 -55 60 -33 88 -31 189 20 103 51 257 114 327 132 84 23 192 27
385 14 318 -20 571 -76 843 -185 9 -4 17 -3 17 2 0 7 -176 75 -260 100 -16 5
92 52 205 89 l70 23 63 -62 63 -62 -53 -7z m-3497 -554 c12 -25 19 -47 17 -48
-1 -1 -39 -15 -83 -30 -97 -34 -154 -66 -213 -120 -40 -37 -44 -38 -37 -16 17
61 73 156 106 182 30 24 154 77 182 78 4 0 17 -21 28 -46z m33 -131 c6 -60 5
-70 -16 -97 -176 -238 -218 -345 -218 -556 0 -114 15 -229 43 -338 l14 -53
-58 -29 c-119 -61 -152 -106 -213 -300 -126 -395 -141 -854 -35 -1061 12 -24
17 -45 12 -46 -6 -2 -19 -11 -29 -19 -18 -14 -16 -15 22 -10 51 7 58 0 34 -34
-11 -15 -37 -63 -58 -107 -40 -84 -69 -130 -75 -122 -26 28 -100 178 -111 224
-33 131 -47 493 -26 665 14 112 73 402 115 566 32 128 71 218 142 337 28 47
38 56 49 46 15 -12 7 21 -29 118 -27 72 -57 230 -57 295 0 74 18 154 56 258
24 64 39 86 104 151 44 45 98 88 130 104 49 25 175 74 191 75 3 0 9 -30 13
-67z m3972 -415 c87 -174 203 -303 325 -361 69 -33 273 -105 342 -121 l27 -6
0 67 c0 114 -20 297 -39 367 -14 52 -15 66 -5 66 32 0 233 -73 275 -101 85
-54 148 -139 185 -249 15 -44 19 -85 19 -200 0 -141 -1 -147 -33 -219 -18 -41
-30 -76 -27 -79 7 -8 8 -7 58 121 72 180 127 333 127 351 0 10 32 32 89 60
104 53 140 91 173 184 l23 63 7 -63 c8 -75 -6 -282 -27 -400 -39 -228 -143
-439 -295 -602 -67 -71 -82 -101 -20 -41 28 28 41 34 44 24 6 -16 97 -439 104
-481 2 -16 8 -28 12 -28 13 0 128 152 159 210 86 162 74 264 -56 457 -30 46
-53 86 -50 89 2 3 40 -50 83 -118 81 -128 184 -349 184 -396 0 -35 -55 -159
-113 -259 -55 -94 -77 -171 -77 -275 0 -117 17 -102 22 21 6 118 6 118 107
310 57 108 47 119 76 -93 9 -65 31 -187 50 -269 19 -83 35 -161 35 -174 0 -31
-16 -61 -95 -182 -64 -97 -115 -210 -115 -253 0 -34 15 -10 39 62 28 84 105
210 115 185 3 -10 6 -76 7 -149 0 -117 -4 -146 -35 -271 -52 -210 -52 -212
-12 -450 52 -310 59 -377 53 -505 -7 -134 -36 -261 -97 -412 -31 -80 -114
-242 -135 -266 -8 -9 -155 54 -155 66 0 7 7 29 15 48 24 58 137 465 140 503 1
20 8 77 15 126 15 104 8 268 -16 384 -31 150 -106 361 -129 361 -16 0 -133
-123 -173 -182 -39 -56 -58 -101 -124 -278 -27 -74 -55 -138 -61 -142 -7 -4
-21 -14 -32 -23 -19 -16 -18 -16 8 -1 24 15 27 15 27 1 0 -9 -12 -27 -27 -41
-19 -17 -21 -23 -8 -18 15 6 17 4 12 -10 -4 -10 -7 -22 -7 -27 0 -5 -15 -18
-32 -29 -34 -21 -32 -28 3 -10 22 12 24 4 10 -34 -6 -13 -18 -26 -28 -29 -15
-4 -14 -5 4 -6 28 -1 21 -37 -16 -69 -21 -20 -22 -22 -4 -13 12 6 23 11 26 11
7 0 -13 -121 -23 -140 -23 -43 -92 -70 -219 -85 -66 -8 -136 -17 -156 -21 -44
-8 -75 11 -110 66 -31 49 -45 51 -45 5 0 -19 -2 -35 -5 -35 -17 0 -175 87
-175 96 0 14 104 269 155 379 20 44 70 141 110 215 65 119 135 294 135 336 0
18 44 10 80 -16 34 -24 30 -59 -31 -278 -27 -97 -49 -180 -49 -186 0 -33 24
30 73 189 31 99 60 191 65 205 11 28 69 105 170 226 105 127 194 310 226 467
16 76 41 359 51 587 7 152 -5 346 -30 465 -41 196 -137 454 -176 476 -10 5
-24 21 -31 36 -18 37 -118 89 -219 114 -103 27 -208 22 -320 -14 l-76 -24 -12
58 c-14 72 -49 109 -129 140 -69 26 -176 29 -241 5 -24 -9 -47 -16 -51 -16 -4
0 -15 38 -25 84 l-17 84 26 28 25 28 26 -24 c43 -41 41 -12 -3 33 -61 62 -61
64 51 82 20 3 37 10 37 14 0 5 -25 30 -55 56 -32 27 -55 55 -55 66 0 23 31
149 36 149 2 0 15 -24 30 -52z m-964 -376 c7 -85 26 -128 62 -142 44 -16 -223
-28 -432 -19 -78 4 -83 5 -77 24 3 11 10 40 16 65 18 81 41 97 221 155 l132
43 36 -23 c34 -22 35 -24 42 -103z m1201 -190 c68 -34 82 -53 97 -130 l8 -44
-54 -24 c-61 -27 -118 -75 -159 -134 -34 -49 -27 -54 -119 92 -37 59 -72 108
-78 110 -6 2 -13 32 -16 65 l-4 62 63 20 c91 30 179 24 262 -17z m-68 -594 c0
-209 5 -320 18 -424 10 -78 19 -159 21 -180 8 -71 47 -308 67 -398 42 -191
136 -360 282 -509 91 -92 253 -197 304 -197 13 0 23 -3 23 -6 0 -16 -107 -124
-123 -124 -10 0 -35 9 -57 20 -22 11 -46 20 -53 20 -30 0 -244 305 -317 450
-60 120 -132 364 -155 523 -7 42 -4 52 16 75 l24 27 -26 -23 -26 -23 -7 42
c-4 27 -2 46 6 57 9 10 9 13 1 9 -16 -10 -20 6 -39 168 -11 97 -16 226 -17
420 0 280 0 280 24 317 13 21 26 38 29 38 3 0 5 -127 5 -282z m-56 -553 c34
-257 86 -504 141 -660 52 -147 148 -312 294 -504 31 -41 56 -83 56 -94 0 -43
-65 -209 -128 -327 -85 -160 -166 -333 -228 -487 -27 -68 -51 -123 -54 -123
-3 0 -29 16 -59 35 -29 19 -56 33 -61 30 -4 -3 1 -28 11 -56 17 -45 18 -52 4
-72 -19 -27 -19 -51 0 -67 12 -10 10 -19 -15 -63 -29 -52 -29 -52 -15 -112 23
-94 19 -175 -10 -241 -24 -53 -24 -61 -15 -144 8 -71 7 -96 -5 -130 -8 -23
-15 -77 -15 -118 0 -46 -6 -93 -16 -119 -17 -45 -9 -73 22 -73 24 0 24 -19 0
-55 l-25 -36 -26 39 c-26 39 -26 42 -16 117 17 119 11 137 -109 319 l-107 162
-17 165 c-63 597 -127 833 -352 1281 -62 123 -65 134 -56 167 8 23 8 40 1 53
-6 12 -8 40 -4 70 6 44 3 59 -21 109 -23 49 -26 62 -16 83 9 21 19 25 64 28
45 3 53 6 53 23 1 11 26 46 57 78 61 62 77 67 146 43 42 -15 57 -10 42 13 -4
8 -2 32 7 57 14 40 17 43 41 38 39 -10 62 -23 115 -67 26 -22 50 -38 53 -34 3
3 -12 28 -34 56 l-40 50 6 86 5 86 -54 55 c-30 30 -68 64 -85 75 -29 17 -31
22 -24 52 4 17 11 40 15 50 5 12 2 17 -9 17 -48 0 20 87 97 124 29 13 81 34
117 46 36 11 72 24 80 27 22 9 -33 20 -108 22 l-62 1 67 57 c38 31 103 88 145
125 l77 69 18 80 18 80 11 -198 c6 -109 17 -238 23 -288z m-4456 -632 c2 -5
-2 -42 -9 -83 -25 -148 -41 -281 -33 -286 4 -2 20 12 35 33 30 44 28 34 -20
-102 -19 -55 -38 -125 -41 -155 -5 -49 -3 -46 19 35 13 50 43 138 65 197 50
128 69 147 216 219 118 58 152 61 174 15 12 -25 11 -41 -4 -120 -10 -50 -20
-97 -22 -103 -9 -22 18 -14 58 18 34 27 144 79 168 79 15 0 22 -31 26 -130 3
-57 11 -110 21 -132 15 -34 15 -40 0 -78 -11 -28 -13 -46 -7 -59 8 -14 -14
-48 -111 -175 l-120 -157 -44 -217 c-25 -119 -51 -230 -59 -247 -7 -16 -40
-89 -73 -161 -81 -178 -75 -173 -193 -158 -52 7 -97 13 -100 13 -3 1 14 70 38
153 24 84 42 157 40 162 -1 4 -15 -34 -31 -85 -15 -52 -37 -124 -48 -161 l-20
-68 -63 0 c-74 0 -104 19 -129 80 -22 56 -36 50 -36 -16 l0 -56 -32 6 c-18 3
-52 8 -76 12 -35 5 -41 10 -37 24 7 21 190 725 264 1014 28 109 49 202 45 205
-6 6 -24 -15 -93 -111 -27 -37 -52 -64 -56 -60 -5 4 -5 2 -2 -4 7 -12 -46 -97
-55 -88 -3 3 -6 -1 -5 -8 1 -7 -27 -70 -61 -140 -83 -168 -91 -202 -175 -733
l-12 -80 -44 -3 -43 -3 6 38 c12 85 38 353 34 365 -2 6 -13 -60 -23 -147 -10
-88 -20 -154 -22 -148 -10 29 17 615 32 698 37 206 108 345 311 613 53 69 103
140 112 159 9 18 21 31 28 29 7 -3 24 11 39 30 39 51 153 103 168 77z m657
-247 c0 -8 -4 -18 -10 -21 -5 -3 -10 3 -10 14 0 12 5 21 10 21 6 0 10 -6 10
-14z m10 -143 c0 -13 -4 -23 -10 -23 -5 0 -10 17 -10 38 0 27 3 33 10 22 5 -8
10 -25 10 -37z m5099 -1304 c-45 -161 -83 -276 -94 -288 -7 -6 -76 41 -73 49
8 23 213 426 216 424 2 -1 -20 -84 -49 -185z m-5485 78 c-10 -43 -25 -73 -42
-89 -15 -14 -23 -17 -20 -8 16 44 72 169 75 166 2 -2 -4 -33 -13 -69z m-494
-1546 c0 -39 -13 -81 -25 -81 -13 0 -29 75 -20 91 11 17 45 10 45 -10z m-401
-88 c0 -5 -6 -24 -13 -43 l-13 -35 -17 39 c-20 49 -21 46 14 46 17 0 30 -3 29
-7z"/>
<path d="M2242 10965 c0 -16 2 -22 5 -12 2 9 2 23 0 30 -3 6 -5 -1 -5 -18z"/>
<path d="M2234 10795 c0 -55 1 -76 3 -47 2 29 2 74 0 100 -2 26 -3 2 -3 -53z"/>
<path d="M2821 11114 c0 -11 3 -14 6 -6 3 7 2 16 -1 19 -3 4 -6 -2 -5 -13z"/>
<path d="M1726 9820 c34 -72 277 -361 291 -346 3 2 -30 39 -72 83 -65 67 -113
125 -208 254 -10 13 -15 17 -11 9z"/>
<path d="M4750 10200 c-8 -5 -10 -10 -5 -10 6 0 17 5 25 10 8 5 11 10 5 10 -5
0 -17 -5 -25 -10z"/>
<path d="M3885 9543 c-33 -30 -113 -95 -177 -144 -126 -96 -154 -125 -60 -61
104 72 310 247 301 256 -2 2 -31 -21 -64 -51z"/>
<path d="M3920 9502 c-47 -48 -67 -73 -45 -55 37 29 75 67 119 121 36 42 11
20 -74 -66z"/>
<path d="M5048 9473 c12 -2 30 -2 40 0 9 3 -1 5 -23 4 -22 0 -30 -2 -17 -4z"/>
<path d="M5203 9473 c15 -2 39 -2 55 0 15 2 2 4 -28 4 -30 0 -43 -2 -27 -4z"/>
<path d="M4958 9463 c6 -2 18 -2 25 0 6 3 1 5 -13 5 -14 0 -19 -2 -12 -5z"/>
<path d="M5333 9463 c9 -2 23 -2 30 0 6 3 -1 5 -18 5 -16 0 -22 -2 -12 -5z"/>
<path d="M4888 9453 c6 -2 18 -2 25 0 6 3 1 5 -13 5 -14 0 -19 -2 -12 -5z"/>
<path d="M4838 9443 c7 -3 16 -2 19 1 4 3 -2 6 -13 5 -11 0 -14 -3 -6 -6z"/>
<path d="M4778 9433 c6 -2 18 -2 25 0 6 3 1 5 -13 5 -14 0 -19 -2 -12 -5z"/>
<path d="M4738 9423 c7 -3 16 -2 19 1 4 3 -2 6 -13 5 -11 0 -14 -3 -6 -6z"/>
<path d="M3809 9403 c-13 -16 -12 -17 4 -4 9 7 17 15 17 17 0 8 -8 3 -21 -13z"/>
<path d="M4688 9413 c7 -3 16 -2 19 1 4 3 -2 6 -13 5 -11 0 -14 -3 -6 -6z"/>
<path d="M4638 9403 c7 -3 16 -2 19 1 4 3 -2 6 -13 5 -11 0 -14 -3 -6 -6z"/>
<path d="M4598 9393 c7 -3 16 -2 19 1 4 3 -2 6 -13 5 -11 0 -14 -3 -6 -6z"/>
<path d="M4535 9380 c-13 -5 -14 -9 -5 -9 8 0 24 4 35 9 13 5 14 9 5 9 -8 0
-24 -4 -35 -9z"/>
<path d="M4488 9363 c7 -3 16 -2 19 1 4 3 -2 6 -13 5 -11 0 -14 -3 -6 -6z"/>
<path d="M4619 8651 c-33 -35 -53 -66 -63 -102 -21 -70 -21 -77 14 -145 29
-57 27 -73 -6 -74 -16 0 -40 -31 -52 -67 -13 -38 -11 -39 23 -17 16 10 34 14
51 10 38 -10 94 51 94 102 1 32 7 42 44 70 59 44 72 77 57 150 -8 44 -19 64
-46 90 -19 17 -42 32 -52 32 -9 0 -38 -22 -64 -49z"/>
<path d="M3516 8309 c-86 -9 -381 -65 -400 -76 -5 -4 -6 1 -2 12 5 15 4 16 -9
5 -19 -15 -19 -30 -1 -30 7 0 57 -23 110 -51 l97 -51 92 45 c114 57 194 81
333 102 169 25 187 29 192 43 4 14 -263 15 -412 1z"/>
<path d="M3928 8273 c7 -3 16 -2 19 1 4 3 -2 6 -13 5 -11 0 -14 -3 -6 -6z"/>
<path d="M3003 8208 c-35 -40 -38 -54 -4 -20 35 34 66 45 36 12 -10 -11 -13
-20 -7 -20 10 0 32 30 32 44 0 15 -39 4 -57 -16z"/>
<path d="M2989 8140 l-24 -21 33 16 c31 15 41 25 23 25 -5 0 -19 -9 -32 -20z"/>
<path d="M3427 7865 c6 -11 8 -26 5 -34 -3 -8 0 -11 7 -7 16 10 14 31 -6 47
-15 13 -15 12 -6 -6z"/>
<path d="M3177 7840 c-65 -15 -129 -25 -142 -22 -15 2 -25 0 -25 -7 0 -18 52
-13 195 19 73 16 141 27 149 24 9 -3 16 -1 16 5 0 17 -65 11 -193 -19z"/>
<path d="M3197 7701 l-39 -6 38 -34 c35 -31 42 -33 92 -29 67 6 81 18 58 52
-14 22 -23 26 -64 25 -26 -1 -64 -5 -85 -8z"/>
<path d="M6150 9860 c-19 -11 -30 -19 -25 -19 6 0 26 8 45 19 19 11 31 19 25
19 -5 0 -26 -8 -45 -19z"/>
<path d="M6080 9830 c-8 -5 -10 -10 -5 -10 6 0 17 5 25 10 8 5 11 10 5 10 -5
0 -17 -5 -25 -10z"/>
<path d="M5580 8790 c-8 -5 -10 -10 -5 -10 6 0 17 5 25 10 8 5 11 10 5 10 -5
0 -17 -5 -25 -10z"/>
<path d="M1678 9263 c12 -2 32 -2 45 0 12 2 2 4 -23 4 -25 0 -35 -2 -22 -4z"/>
<path d="M1773 9253 c9 -2 25 -2 35 0 9 3 1 5 -18 5 -19 0 -27 -2 -17 -5z"/>
<path d="M2558 9113 c12 -2 32 -2 45 0 12 2 2 4 -23 4 -25 0 -35 -2 -22 -4z"/>
<path d="M2610 8890 c8 -5 20 -10 25 -10 6 0 3 5 -5 10 -8 5 -19 10 -25 10 -5
0 -3 -5 5 -10z"/>
<path d="M2949 8543 c-13 -16 -12 -17 4 -4 16 13 21 21 13 21 -2 0 -10 -8 -17
-17z"/>
<path d="M2731 8410 c-1 -40 17 -81 39 -88 11 -4 10 1 -4 17 -11 12 -23 41
-27 64 -6 41 -7 41 -8 7z"/>
<path d="M4275 6658 l-40 -43 43 40 c23 21 42 40 42 42 0 8 -9 0 -45 -39z"/>
<path d="M3628 6553 c7 -3 16 -2 19 1 4 3 -2 6 -13 5 -11 0 -14 -3 -6 -6z"/>
<path d="M2790 6489 c-35 -31 -35 -31 -3 -9 18 11 35 25 38 30 10 16 2 11 -35
-21z"/>
<path d="M1066 3976 c-10 -115 5 -213 55 -349 27 -77 93 -177 106 -163 3 3 -7
19 -21 37 -37 43 -59 89 -91 189 -24 71 -29 109 -34 235 l-6 150 -9 -99z"/>
<path d="M6716 5012 c-16 -48 -31 -93 -33 -99 -3 -7 -1 -13 4 -13 9 0 67 189
60 196 -2 2 -16 -36 -31 -84z"/>
<path d="M6673 2732 c-68 -36 -123 -70 -123 -75 0 -8 196 93 241 125 52 37 -2
14 -118 -50z"/>
<path d="M6365 2592 c-27 -15 -50 -33 -53 -40 -2 -7 20 2 50 20 66 40 62 37
57 42 -2 3 -26 -7 -54 -22z"/>
<path d="M6339 2513 l-24 -28 28 24 c25 23 32 31 24 31 -2 0 -14 -12 -28 -27z"/>
<path d="M6634 2064 c-18 -14 -18 -15 4 -4 12 6 22 13 22 15 0 8 -5 6 -26 -11z"/>
<path d="M4555 5229 c-16 -10 -26 -19 -22 -19 11 0 67 29 67 35 0 9 -15 4 -45
-16z"/>
<path d="M1291 2664 c0 -11 3 -14 6 -6 3 7 2 16 -1 19 -3 4 -6 -2 -5 -13z"/>
<path d="M1411 1954 c0 -11 3 -14 6 -6 3 7 2 16 -1 19 -3 4 -6 -2 -5 -13z"/>
<path d="M4441 11049 c-6 -18 -9 -34 -7 -36 2 -2 9 10 15 28 6 18 9 34 7 36
-2 2 -9 -10 -15 -28z"/>
<path d="M1531 10744 c0 -11 3 -14 6 -6 3 7 2 16 -1 19 -3 4 -6 -2 -5 -13z"/>
<path d="M1541 10704 c0 -11 3 -14 6 -6 3 7 2 16 -1 19 -3 4 -6 -2 -5 -13z"/>
<path d="M5888 9373 c7 -3 16 -2 19 1 4 3 -2 6 -13 5 -11 0 -14 -3 -6 -6z"/>
<path d="M5828 9363 c6 -2 18 -2 25 0 6 3 1 5 -13 5 -14 0 -19 -2 -12 -5z"/>
<path d="M421 582 c-32 -64 -66 -140 -74 -167 -26 -88 -45 -125 -64 -125 -14
0 -15 -2 -5 -9 8 -5 20 -39 28 -76 13 -63 13 -70 -3 -89 -10 -12 -11 -15 -3
-8 21 18 30 15 30 -10 0 -13 6 -30 13 -39 18 -24 79 -59 102 -58 13 0 8 5 -16
15 -53 22 -79 105 -79 249 0 118 6 139 88 323 28 61 49 112 47 112 -3 0 -31
-53 -64 -118z"/>
<path d="M5625 50 c-27 -27 -45 -50 -40 -50 4 0 16 7 26 16 15 14 20 14 54 0
21 -9 52 -16 69 -15 27 0 24 3 -26 22 -62 22 -67 30 -41 59 34 38 5 16 -42
-32z"/>
</g>
</svg>
